#!OML:ASF I:\Actors\actors\Patient Classification 1\Patient 1\Session 1\Subject1.ASF
:FULLY-SPECIFIED
:DEGREES
1360
root -0.590705 17.597 8.16347 5.54433 3.37176 -8.4998
lowerback 0.506967 3.26539 6.78072
upperback -9.02342 4.88889 0.857283
thorax -9.39395 1.91502 -3.26044
lowerneck -15.7416 -5.93251 -2.54552
upperneck 22.9089 -8.82818 4.43353
head 10.2319 -3.78089 0.787279
rclavicle -2.52457e-014 -1.43125e-014
rhumerus 20.8429 63.9353 -34.971
rradius 126.703
rwrist -1.96537
rhand 1.04063 -30.1958
rfingers 7.12502
rthumb 26.5867 -418.35
lclavicle -2.52457e-014 -1.43125e-014
lhumerus -24.7656 -33.3305 97.5047
lradius 100.528
lwrist 19.6341
lhand -44.6854 -15.0149
lfingers 7.12502
lthumb -17.4809 14.2191
rfemur -0.525362 19.7898 26.2355
rtibia 5.78993
rfoot -15.8338 -24.2217
rtoes 0.801861
lfemur 4.54424 -36.1139 -11.2781
ltibia -2.14148
lfoot -11.5645 41.8341
ltoes 0.522213
1361
root -0.582659 17.5999 8.1549 5.91102 2.7461 -8.38061
lowerback 1.08351 3.40973 7.16408
upperback -9.52716 5.16914 0.582621
thorax -10.2309 1.95868 -3.84554
lowerneck -15.4497 -5.75083 -1.98876
upperneck 22.6702 -8.64116 4.1826
head 10.0439 -3.68882 0.646973
rclavicle -2.98177e-016 2.10712e-014
rhumerus 18.4378 58.1657 -40.0902
rradius 128.184
rwrist -4.59723
rhand 0.526508 -28.7896
rfingers 7.12502
rthumb 26.0946 -417.017
lclavicle -2.98177e-016 2.10712e-014
lhumerus -26.3833 -33.6474 97.9399
lradius 100.994
lwrist 19.5075
lhand -44.6854 -15.3756
lfingers 7.12502
lthumb -17.4809 13.8585
rfemur -1.29541 19.7728 25.8118
rtibia 6.26156
rfoot -15.7027 -23.5684
rtoes 0.47946
lfemur 4.43958 -36.3671 -11.4278
ltibia -2.23303
lfoot -12.1203 42.6219
ltoes 1.57762
1362
root -0.572688 17.6047 8.15137 6.2816 2.10557 -8.36113
lowerback 1.13037 3.48523 7.49122
upperback -9.70356 5.30347 0.535698
thorax -10.4199 1.98029 -4.09661
lowerneck -15.5224 -5.58197 -1.75802
upperneck 22.361 -8.38518 3.95732
head 9.91608 -3.58377 0.567588
rclavicle -3.06128e-014 2.78299e-015
rhumerus 19.1405 51.9829 -42.3915
rradius 128.107
rwrist -7.17824
rhand 0.61354 -30.5411
rfingers 7.12502
rthumb 26.1779 -418.756
lclavicle -3.06128e-014 2.78299e-015
lhumerus -27.249 -33.7044 98.1531
lradius 101.422
lwrist 19.1939
lhand -44.6192 -15.5845
lfingers 7.12502
lthumb -17.4172 13.6552
rfemur -2.06445 19.5393 25.4962
rtibia 6.72237
rfoot -15.4821 -22.7415
rtoes -0.0676301
lfemur 4.26023 -36.2132 -11.4034
ltibia -2.29031
lfoot -12.5915 43.0517
ltoes 2.39764
1363
root -0.561606 17.6088 8.14254 6.55248 1.25982 -8.23061
lowerback 1.12896 3.58647 7.63425
upperback -9.68545 5.44492 0.524509
thorax -10.37 2.03823 -4.19662
lowerneck -15.6797 -5.30905 -1.35527
upperneck 21.996 -8.01693 3.6993
head 9.77411 -3.41528 0.462485
rclavicle -3.76697e-014 -2.54444e-014
rhumerus 20.763 46.5292 -43.7734
rradius 125.514
rwrist -4.67749
rhand -0.699355 -28.4566
rfingers 7.12502
rthumb 24.9203 -416.852
lclavicle -3.76697e-014 -2.54444e-014
lhumerus -27.6689 -33.6845 98.2129
lradius 101.881
lwrist 18.84
lhand -44.6148 -15.3971
lfingers 7.12502
lthumb -17.413 13.843
rfemur -2.82585 19.2978 25.0444
rtibia 7.29234
rfoot -15.1911 -21.7595
rtoes -1.1057
lfemur 4.2641 -36.04 -11.64
ltibia -2.33752
lfoot -13.2285 43.61
ltoes 3.44885
1364
root -0.549425 17.6112 8.13091 6.65783 0.267724 -7.92835
lowerback 1.33015 3.71624 7.6176
upperback -9.65771 5.62654 0.435999
thorax -10.4284 2.11956 -4.311
lowerneck -15.7915 -5.02094 -0.778818
upperneck 21.8233 -7.68925 3.44595
head 9.68951 -3.24694 0.324517
rclavicle -1.25234e-014 2.42517e-014
rhumerus 22.65 42.6046 -44.5827
rradius 121.549
rwrist -2.41231
rhand 0.509127 -28.3694
rfingers 7.12502
rthumb 26.0779 -416.599
lclavicle -1.25234e-014 2.42517e-014
lhumerus -28.1411 -33.6573 98.2782
lradius 102.442
lwrist 18.7447
lhand -44.7865 -15.6217
lfingers 7.12502
lthumb -17.5782 13.6037
rfemur -3.42313 19.0362 24.4255
rtibia 7.85502
rfoot -14.9136 -20.665
rtoes -2.05036
lfemur 4.53386 -35.9657 -12.3026
ltibia -2.31199
lfoot -14.0856 44.3121
ltoes 4.64149
1365
root -0.539723 17.6144 8.11756 6.6399 -0.704194 -7.71396
lowerback 1.66423 3.85934 7.65829
upperback -9.64202 5.84618 0.364995
thorax -10.5734 2.21011 -4.45405
lowerneck -15.9283 -4.89577 -0.790764
upperneck 21.7829 -7.5304 3.53174
head 9.70157 -3.16303 0.373836
rclavicle 5.56597e-015 1.55052e-014
rhumerus 24.7327 41.3919 -44.2454
rradius 116.516
rwrist -3.17286
rhand -2.39854 -28.5328
rfingers 7.12502
rthumb 23.2911 -417.144
lclavicle 5.56597e-015 1.55052e-014
lhumerus -28.6429 -33.6506 98.4127
lradius 103.011
lwrist 18.8227
lhand -44.9787 -16.1586
lfingers 7.12502
lthumb -17.7632 13.0501
rfemur -3.87222 18.838 23.9754
rtibia 8.40491
rfoot -14.7331 -19.6289
rtoes -2.52969
lfemur 4.83029 -35.6087 -12.8472
ltibia -2.22177
lfoot -14.6032 44.7228
ltoes 5.16488
1366
root -0.533335 17.6169 8.10437 6.59715 -1.54484 -7.72084
lowerback 1.92776 4.00508 7.85593
upperback -9.6262 6.07987 0.348694
thorax -10.6672 2.2994 -4.62086
lowerneck -15.9415 -4.70919 -0.417228
upperneck 21.8929 -7.36686 3.50294
head 9.72367 -3.05649 0.323569
rclavicle 1.98785e-014 2.18663e-014
rhumerus 26.4288 40.7193 -43.948
rradius 110.606
rwrist -3.34946
rhand -0.515726 -29.2535
rfingers 7.12502
rthumb 25.0963 -417.624
lclavicle 1.98785e-014 2.18663e-014
lhumerus -28.9415 -33.7266 98.5275
lradius 103.454
lwrist 18.8459
lhand -44.8932 -16.119
lfingers 7.12502
lthumb -17.6809 13.0971
rfemur -4.25124 18.7808 23.8401
rtibia 8.9385
rfoot -14.7174 -18.7621
rtoes -2.62045
lfemur 5.06437 -35.0078 -12.9996
ltibia -2.20648
lfoot -14.7403 44.8387
ltoes 5.21141
